<?xml version="1.0" standalone="no"?>
<!DOCTYPE svg PUBLIC "-//W3C//DTD SVG 20010904//EN"
 "http://www.w3.org/TR/2001/REC-SVG-20010904/DTD/svg10.dtd">
<svg version="1.0" xmlns="http://www.w3.org/2000/svg"
 width="700.000000pt" height="202.000000pt" viewBox="0 0 700.000000 202.000000"
 preserveAspectRatio="xMidYMid meet">

<g transform="translate(0.000000,202.000000) scale(0.100000,-0.100000)"
fill="#000000" stroke="none">
<path d="M836 1929 c-86 -12 -234 -60 -306 -101 -111 -62 -276 -214 -349 -321
-146 -215 -190 -527 -111 -782 46 -149 109 -254 222 -371 199 -206 414 -299
688 -296 256 2 472 95 656 284 130 132 201 254 246 418 33 122 33 347 0 470
-89 337 -367 606 -706 684 -87 21 -250 28 -340 15z m314 -511 c101 -46 163
-135 163 -233 0 -74 -30 -121 -142 -226 -101 -93 -114 -113 -126 -181 l-6 -38
-69 0 -70 0 0 49 c0 96 26 140 143 243 90 78 120 125 113 176 -11 75 -78 123
-171 123 -89 0 -157 -47 -186 -130 -10 -29 -12 -30 -62 -24 -88 10 -97 16 -87
59 18 79 100 163 192 196 78 28 232 21 308 -14z m-112 -825 l3 -63 -61 0 -60
0 0 59 c0 67 4 71 70 68 l45 -2 3 -62z"/>
<path d="M2846 1263 c13 -49 57 -207 97 -353 l73 -265 59 -3 60 -3 54 198 c30
109 58 213 63 231 5 17 12 32 17 32 4 0 36 -104 71 -230 l64 -231 59 3 60 3
93 340 c52 187 94 346 94 353 0 8 -19 12 -60 12 l-59 0 -10 -37 c-5 -21 -33
-129 -62 -241 -29 -111 -56 -199 -60 -195 -4 4 -30 98 -59 208 -28 110 -56
215 -61 233 l-11 33 -61 -3 -61 -3 -61 -232 c-33 -127 -63 -235 -67 -238 -4
-4 -11 10 -17 31 -5 22 -33 130 -62 242 l-52 202 -62 0 -63 0 24 -87z"/>
<path d="M3760 995 l0 -355 60 0 60 0 0 184 c0 183 0 185 26 215 49 58 143 50
170 -15 10 -24 14 -82 14 -209 l0 -175 60 0 60 0 0 175 c0 214 -10 267 -59
317 -59 59 -174 75 -237 33 -13 -8 -26 -15 -29 -15 -3 0 -5 45 -5 100 l0 100
-60 0 -60 0 0 -355z"/>
<path d="M4820 995 l0 -355 166 0 c191 0 231 9 285 60 75 72 71 211 -8 280
-33 29 -35 33 -19 42 10 6 26 29 37 52 50 110 -8 233 -126 265 -22 6 -106 11
-187 11 l-148 0 0 -355z m336 211 c32 -37 31 -78 -5 -118 -27 -30 -32 -32
-120 -36 l-91 -4 0 97 0 97 96 -4 c91 -4 98 -6 120 -32z m-6 -281 c32 -16 60
-61 60 -94 0 -11 -11 -33 -24 -48 -23 -27 -28 -28 -135 -31 l-111 -4 0 96 0
96 90 0 c62 0 100 -5 120 -15z"/>
<path d="M6470 995 l0 -355 60 0 60 0 0 98 c0 90 8 122 30 122 4 0 46 -49 94
-110 l88 -110 74 0 c42 0 73 3 70 8 -2 4 -56 72 -120 152 l-116 145 117 117
118 118 -75 0 -75 0 -95 -95 c-52 -52 -98 -95 -102 -95 -5 0 -8 81 -8 180 l0
180 -60 0 -60 0 0 -355z"/>
<path d="M5554 1181 c-73 -19 -154 -88 -154 -132 0 -8 21 -22 50 -32 l49 -18
33 37 c27 28 43 37 78 41 56 6 100 -23 100 -66 0 -26 -2 -27 -104 -43 -169
-27 -216 -63 -216 -168 0 -71 23 -115 78 -147 57 -33 148 -37 202 -9 23 13 35
15 38 7 2 -6 28 -11 63 -11 l59 0 0 203 c0 190 -1 205 -22 247 -16 31 -36 52
-64 68 -45 24 -140 36 -190 23z m136 -401 c-53 -75 -210 -49 -185 30 9 28 36
40 123 53 l77 12 3 -32 c2 -22 -4 -44 -18 -63z"/>
<path d="M6113 1179 c-18 -5 -35 -14 -38 -19 -9 -15 -25 -12 -25 5 0 12 -13
15 -60 15 l-60 0 0 -270 0 -270 59 0 60 0 3 190 c3 189 3 190 29 216 16 16 41
28 67 31 36 5 45 2 72 -25 l30 -30 0 -191 0 -191 60 0 60 0 0 203 c0 216 -8
256 -58 300 -45 41 -130 56 -199 36z"/>
<path d="M4336 924 c52 -140 94 -265 94 -277 0 -12 -9 -37 -21 -56 -18 -30
-24 -33 -60 -29 l-40 4 -14 -50 c-18 -60 -13 -66 63 -66 63 0 102 18 135 62
14 18 75 170 137 338 62 168 115 311 117 318 4 9 -12 12 -59 12 l-64 0 -49
-142 c-68 -199 -75 -215 -86 -197 -4 9 -30 80 -58 160 -27 79 -52 152 -56 162
-6 14 -19 17 -70 17 l-62 0 93 -256z"/>
</g>
</svg>
